<?xml version="1.0" encoding="utf-8"?>
<svg xmlns="http://www.w3.org/2000/svg" x="0px" y="0px" width="1600px" height="540px" style="background: #000000">
	<!-- Walls of the building -->
	<rect x="0" y="0" width="1600" height="8" fill="#0000FF" />
	<rect x="0" y="0" width="8" height="540" fill="#0000FF" />
	<rect x="0" y="532" width="1600" height="8" fill="#0000FF" />
	<rect x="1592" y="0" width="8" height="540" fill="#0000FF" />
	<!-- Top room walls -->
	<rect x="0" y="125" width="1600" height="1" fill="#0000FF" />
	<!-- Bottom room walls -->
	<rect x="0" y="415" width="1600" height="1" fill="#0000FF" />

	<!-- Right square walls -->
	<rect x="1285" y="170" width="67" height="3" fill="#0000FF" />
	<rect x="1372" y="170" width="82" height="3" fill="#0000FF" />

	<rect x="1285" y="170" width="11" height="199" fill="#0000FF" />

	<rect x="1285" y="366" width="67" height="3" fill="#0000FF" />
	<rect x="1372" y="366" width="82" height="3" fill="#0000FF" />

	<rect x="1454" y="170" width="19" height="199" fill="#0000FF" />

	<!-- Right glass walls -->
	<rect x="1473" y="170" width="81" height="1" fill="#0000FF" />
	<rect x="1554" y="170" width="1" height="199" fill="#0000FF" />
	<rect x="1473" y="368" width="81" height="1" fill="#0000FF" />

	<!-- Elevator/toilet parts -->
	<rect x="974" y="197" width="69" height="157" fill="#0000FF" />
	<rect x="1114" y="197" width="145" height="63" fill="#0000FF" />
	<rect x="1114" y="290" width="145" height="64" fill="#0000FF" />

	<!-- Center glass walls -->
	<rect x="610" y="199" width="331" height="1" fill="#0000FF" />
	<rect x="940" y="199" width="1" height="141" fill="#0000FF" />
	<rect x="610" y="340" width="331" height="1" fill="#0000FF" />
	<rect x="610" y="199" width="1" height="141" fill="#0000FF" />


    <!-- Meeting room -->
    <rect x="417" y="168" width="105" height="202" fill="#0000FF" />

    <!-- Stairs/toilet parts -->
    <rect x="113" y="198" width="117" height="77" fill="#0000FF" />
    <rect x="262" y="198" width="155" height="77" fill="#0000FF" />

    <!-- Glass parts under stairs -->
    <rect x="262" y="275" width="1" height="67" fill="#0000FF" />
    <rect x="262" y="342" width="155" height="1" fill="#0000FF" />
    <rect x="416" y="275" width="1" height="67" fill="#0000FF" />

    <!-- Left squary walls -->
    <rect x="36" y="171" width="77" height="11" fill="#0000FF" />
    <rect x="102" y="171" width="11" height="27" fill="#0000FF" />

    <rect x="36" y="358" width="194" height="11" fill="#0000FF" />
    <rect x="219" y="295" width="11" height="63" fill="#0000FF" />

    <!-- Balcony -->
    <rect x="0" y="125" width="36" height="290" fill="#0000FF" />

	<!-- ENERGIZER -->
    <rect x="50" y="142" width="15" height="15" fill="#FF69b4" />
    <rect x="50" y="385" width="15" height="15" fill="#FF69b4" />
	<rect x="1550" y="142" width="15" height="15" fill="#FF69b4" />
    <rect x="1550" y="385" width="15" height="15" fill="#FF69b4" />

	<!-- FOOD -->
    <rect x="100" y="145" width="10" height="10" fill="#FFFFFF" />
    <rect x="150" y="145" width="10" height="10" fill="#FFFFFF" />
    <rect x="200" y="145" width="10" height="10" fill="#FFFFFF" />
    <rect x="250" y="145" width="10" height="10" fill="#FFFFFF" />
    <rect x="300" y="145" width="10" height="10" fill="#FFFFFF" />
    <rect x="350" y="145" width="10" height="10" fill="#FFFFFF" />
    <rect x="400" y="145" width="10" height="10" fill="#FFFFFF" />
    <rect x="450" y="145" width="10" height="10" fill="#FFFFFF" />
    <rect x="500" y="145" width="10" height="10" fill="#FFFFFF" />
    <rect x="550" y="145" width="10" height="10" fill="#FFFFFF" />
    <rect x="600" y="145" width="10" height="10" fill="#FFFFFF" />
    <rect x="650" y="145" width="10" height="10" fill="#FFFFFF" />
    <rect x="700" y="145" width="10" height="10" fill="#FFFFFF" />
    <rect x="750" y="145" width="10" height="10" fill="#FFFFFF" />
    <rect x="800" y="145" width="10" height="10" fill="#FFFFFF" />
    <rect x="850" y="145" width="10" height="10" fill="#FFFFFF" />
    <rect x="900" y="145" width="10" height="10" fill="#FFFFFF" />
    <rect x="950" y="145" width="10" height="10" fill="#FFFFFF" />
    <rect x="1000" y="145" width="10" height="10" fill="#FFFFFF" />
    <rect x="1050" y="145" width="10" height="10" fill="#FFFFFF" />
    <rect x="1100" y="145" width="10" height="10" fill="#FFFFFF" />
    <rect x="1150" y="145" width="10" height="10" fill="#FFFFFF" />
    <rect x="1200" y="145" width="10" height="10" fill="#FFFFFF" />
    <rect x="1250" y="145" width="10" height="10" fill="#FFFFFF" />
    <rect x="1300" y="145" width="10" height="10" fill="#FFFFFF" />
	<rect x="1350" y="145" width="10" height="10" fill="#FFFFFF" />
	<rect x="1400" y="145" width="10" height="10" fill="#FFFFFF" />
    <rect x="1450" y="145" width="10" height="10" fill="#FFFFFF" />
    <rect x="1500" y="145" width="10" height="10" fill="#FFFFFF" />

	<rect x="1055" y="200" width="10" height="10" fill="#FFFFFF" />
	<rect x="1055" y="250" width="10" height="10" fill="#FFFFFF" />
	<rect x="1055" y="300" width="10" height="10" fill="#FFFFFF" />
	<rect x="1055" y="350" width="10" height="10" fill="#FFFFFF" />
    <rect x="1095" y="200" width="10" height="10" fill="#FFFFFF" />
	<rect x="1095" y="250" width="10" height="10" fill="#FFFFFF" />
	<rect x="1095" y="300" width="10" height="10" fill="#FFFFFF" />
	<rect x="1095" y="350" width="10" height="10" fill="#FFFFFF" />

    <rect x="1268" y="200" width="10" height="10" fill="#FFFFFF" />
	<rect x="1268" y="250" width="10" height="10" fill="#FFFFFF" />
	<rect x="1268" y="300" width="10" height="10" fill="#FFFFFF" />
	<rect x="1268" y="350" width="10" height="10" fill="#FFFFFF" />

    <rect x="1350" y="200" width="10" height="10" fill="#FFFFFF" />
	<rect x="1350" y="250" width="10" height="10" fill="#FFFFFF" />
	<rect x="1350" y="300" width="10" height="10" fill="#FFFFFF" />
	<rect x="1350" y="350" width="10" height="10" fill="#FFFFFF" />

    <rect x="1565" y="200" width="10" height="10" fill="#FFFFFF" />
	<rect x="1565" y="250" width="10" height="10" fill="#FFFFFF" />
	<rect x="1565" y="300" width="10" height="10" fill="#FFFFFF" />
	<rect x="1565" y="350" width="10" height="10" fill="#FFFFFF" />

    <rect x="100" y="388" width="10" height="10" fill="#FFFFFF" />
    <rect x="150" y="388" width="10" height="10" fill="#FFFFFF" />
    <rect x="200" y="388" width="10" height="10" fill="#FFFFFF" />
    <rect x="250" y="388" width="10" height="10" fill="#FFFFFF" />
    <rect x="300" y="388" width="10" height="10" fill="#FFFFFF" />
    <rect x="350" y="388" width="10" height="10" fill="#FFFFFF" />
    <rect x="400" y="388" width="10" height="10" fill="#FFFFFF" />
    <rect x="450" y="388" width="10" height="10" fill="#FFFFFF" />
    <rect x="500" y="388" width="10" height="10" fill="#FFFFFF" />
    <rect x="550" y="388" width="10" height="10" fill="#FFFFFF" />
    <rect x="600" y="388" width="10" height="10" fill="#FFFFFF" />
    <rect x="650" y="388" width="10" height="10" fill="#FFFFFF" />
    <rect x="700" y="388" width="10" height="10" fill="#FFFFFF" />
    <rect x="750" y="388" width="10" height="10" fill="#FFFFFF" />
    <rect x="800" y="388" width="10" height="10" fill="#FFFFFF" />
    <rect x="850" y="388" width="10" height="10" fill="#FFFFFF" />
    <rect x="900" y="388" width="10" height="10" fill="#FFFFFF" />
    <rect x="950" y="388" width="10" height="10" fill="#FFFFFF" />
    <rect x="1000" y="388" width="10" height="10" fill="#FFFFFF" />
    <rect x="1050" y="388" width="10" height="10" fill="#FFFFFF" />
    <rect x="1100" y="388" width="10" height="10" fill="#FFFFFF" />
    <rect x="1150" y="388" width="10" height="10" fill="#FFFFFF" />
    <rect x="1200" y="388" width="10" height="10" fill="#FFFFFF" />
    <rect x="1250" y="388" width="10" height="10" fill="#FFFFFF" />
    <rect x="1300" y="388" width="10" height="10" fill="#FFFFFF" />
	<rect x="1350" y="388" width="10" height="10" fill="#FFFFFF" />
    <rect x="1400" y="388" width="10" height="10" fill="#FFFFFF" />
    <rect x="1450" y="388" width="10" height="10" fill="#FFFFFF" />
    <rect x="1500" y="388" width="10" height="10" fill="#FFFFFF" />

</svg>